<svg width="54" height="49" viewBox="0 0 54 49" fill="none" xmlns="http://www.w3.org/2000/svg">
<path d="M12 20V12M12 12V4M12 12H20M12 12H4" stroke="white" stroke-width="2" stroke-linecap="round"/>
<path d="M45.0487 26.6511C45.0487 34.0235 38.7698 40 31.0244 40C23.2789 40 17 34.0235 17 26.6511C17 22.9649 17.8796 20.2808 20.5582 17.7312C21.8974 16.4565 24.3334 15.6007 26.1933 16.1901C28.0533 16.7796 29.8164 17.965 30.6982 17.965C31.5708 17.965 33.4477 16.5297 35.5223 16.1901C38.0037 15.7839 40.1513 16.4565 41.4905 17.7312C44.1691 20.2808 45.0487 22.9649 45.0487 26.6511V26.6511Z" fill="#F30000"/>
<path opacity="0.997" d="M44.228 26.7301C44.228 33.6709 38.3166 39.2976 31.0245 39.2976C23.7324 39.2976 17.821 33.6709 17.821 26.7301C17.821 23.2597 18.6492 20.7326 21.1709 18.3323C22.4318 17.1322 24.7251 16.3265 26.4762 16.8814C28.2273 17.4363 29.8873 18.9261 30.7175 18.9261C31.5389 18.9261 33.3524 17.4363 35.2592 16.8814C37.166 16.3265 39.9877 17.0711 41.2486 18.2712C43.7704 20.6715 44.228 23.2597 44.228 26.7301V26.7301Z" fill="#FA4527"/>
<path d="M37.0991 26.84C37.2701 29.8471 33.0495 31.5717 32.3611 33.1701C31.5549 35.0418 33.3983 37.8015 36.6218 36.0636C40.061 34.2094 42.4606 31.5045 42.4606 26.8705C42.4606 22.2365 39.7387 19.7907 37.4969 19.0529C35.7851 18.4896 33.5815 19.0443 33.5583 20.9375C33.5425 22.2195 36.9159 23.6188 37.0991 26.84Z" fill="#CF0002"/>
<g filter="url(#filter0_f_228_158)">
<path d="M38.0337 26.9011C38.1287 29.3649 34.2845 30.6888 34.1148 32.883C33.9851 34.5594 34.494 35.5582 36.0386 34.3466C37.9545 32.8438 39.8066 30.741 39.8066 26.9443C39.8066 23.1476 37.7703 21.0142 36.5248 20.4098C35.5737 19.9482 34.6349 20.3475 35.1998 21.7758C35.6756 22.9788 37.9319 24.262 38.0337 26.9011V26.9011Z" fill="#FF1702"/>
</g>
<g opacity="0.843">
<path d="M39.9474 27.3995C39.9167 27.806 39.6041 27.9521 39.2343 27.9239C38.8644 27.8957 38.3669 27.4094 38.3759 27.2908C38.386 27.1556 38.9512 26.7447 39.321 26.7729C39.6909 26.8011 39.978 26.9929 39.9474 27.3995V27.3995Z" fill="#FB9704"/>
<path d="M39.7551 27.3928C39.7281 27.7749 39.4524 27.9122 39.1261 27.8857C38.7998 27.8592 38.3609 27.4021 38.3688 27.2906C38.3777 27.1635 38.8763 26.7774 39.2026 26.8039C39.5289 26.8303 39.7822 27.0107 39.7551 27.3928Z" fill="#FCCD00"/>
<path d="M39.6769 25.2683C39.8264 25.6436 39.6132 25.9287 39.2736 26.0879C38.934 26.2471 38.2825 26.064 38.2388 25.9545C38.1891 25.8297 38.5108 25.1844 38.8505 25.0252C39.1901 24.866 39.5275 24.8929 39.6769 25.2683V25.2683Z" fill="#FB9704"/>
<path d="M39.5037 25.3582C39.6458 25.7101 39.4614 25.969 39.1611 26.108C38.8608 26.247 38.2738 26.0607 38.2324 25.9581C38.1851 25.841 38.4586 25.2507 38.7589 25.1117C39.0592 24.9727 39.3617 25.0063 39.5037 25.3582Z" fill="#FCCD00"/>
<path d="M38.8905 23.5745C39.1044 23.912 38.9462 24.2357 38.6414 24.4618C38.3366 24.688 37.6645 24.6426 37.6021 24.5441C37.5309 24.4319 37.7312 23.7323 38.036 23.5061C38.3408 23.2799 38.6767 23.2369 38.8905 23.5745V23.5745Z" fill="#FB9704"/>
<path d="M38.7369 23.6982C38.9392 24.0143 38.8046 24.3064 38.5348 24.5047C38.2649 24.7029 37.6556 24.641 37.5965 24.5488C37.5292 24.4437 37.692 23.808 37.9618 23.6098C38.2316 23.4115 38.5345 23.3822 38.7369 23.6982Z" fill="#FCCD00"/>
<path d="M37.7134 21.989C37.9702 22.2672 37.8739 22.6022 37.6234 22.8729C37.3729 23.1435 36.7315 23.2272 36.6566 23.1461C36.5711 23.0536 36.6457 22.3561 36.8962 22.0854C37.1467 21.8147 37.4566 21.7109 37.7134 21.989V21.989Z" fill="#FB9704"/>
<path d="M37.5888 22.1347C37.8313 22.3947 37.7521 22.6956 37.53 22.9333C37.3079 23.1711 36.723 23.2274 36.6522 23.1515C36.5716 23.0651 36.6212 22.4349 36.8434 22.1971C37.0655 21.9593 37.3463 21.8747 37.5888 22.1347Z" fill="#FCCD00"/>
<path d="M36.3569 20.747C36.6435 20.931 36.6292 21.2515 36.4645 21.5526C36.2997 21.8537 35.7488 22.0844 35.6652 22.0307C35.5698 21.9696 35.488 21.333 35.6528 21.0319C35.8175 20.7308 36.0702 20.5631 36.3569 20.747V20.747Z" fill="#FB9704"/>
<path d="M36.2773 20.9067C36.5475 21.0781 36.541 21.3641 36.3945 21.6291C36.248 21.8941 35.7413 22.0867 35.6625 22.0367C35.5726 21.9798 35.4831 21.4089 35.6296 21.1439C35.7761 20.8789 36.0072 20.7353 36.2773 20.9067Z" fill="#FCCD00"/>
<path d="M39.1911 29.6533C38.9855 29.9969 38.6455 29.9685 38.3316 29.7575C38.0176 29.5464 37.7922 28.8665 37.8521 28.7663C37.9205 28.652 38.5996 28.5737 38.9136 28.7848C39.2276 28.9959 39.3966 29.3098 39.1911 29.6533V29.6533Z" fill="#FB9704"/>
<path d="M39.0245 29.5506C38.8329 29.8743 38.5292 29.8568 38.253 29.6692C37.9767 29.4815 37.7902 28.857 37.8461 28.7625C37.9098 28.6548 38.5193 28.5648 38.7956 28.7524C39.0719 28.9401 39.2162 29.2268 39.0245 29.5506Z" fill="#FCCD00"/>
<path d="M38.0308 31.4125C37.7386 31.6739 37.4223 31.5375 37.1818 31.235C36.9414 30.9326 36.9165 30.2116 37.0017 30.1353C37.0989 30.0482 37.7686 30.1922 38.009 30.4947C38.2495 30.7971 38.3229 31.151 38.0308 31.4125V31.4125Z" fill="#FB9704"/>
<path d="M37.9008 31.2609C37.6274 31.508 37.3427 31.3935 37.1317 31.1256C36.9206 30.8576 36.9174 30.2018 36.9971 30.1297C37.088 30.0475 37.6946 30.1579 37.9056 30.4259C38.1167 30.6938 38.1741 31.0137 37.9008 31.2609Z" fill="#FCCD00"/>
<path d="M36.6411 32.8444C36.3391 33.0309 36.0737 32.8544 35.9011 32.5408C35.7286 32.2273 35.812 31.5725 35.9001 31.5181C36.0005 31.456 36.5836 31.6991 36.7561 32.0127C36.9287 32.3262 36.943 32.6579 36.6411 32.8444V32.8444Z" fill="#FB9704"/>
<path d="M36.5459 32.6852C36.263 32.8619 36.023 32.7105 35.8719 32.4331C35.7208 32.1556 35.8141 31.5634 35.8966 31.5118C35.9907 31.453 36.5218 31.6552 36.6729 31.9326C36.824 32.21 36.8288 32.5084 36.5459 32.6852Z" fill="#FCCD00"/>
<path d="M35.0384 33.919C34.7167 34.0627 34.4745 33.8512 34.3407 33.5167C34.2068 33.1821 34.3674 32.5441 34.4613 32.5022C34.5682 32.4544 35.1176 32.7753 35.2515 33.1099C35.3853 33.4444 35.3601 33.7753 35.0384 33.919V33.919Z" fill="#FB9704"/>
<path d="M34.9629 33.7488C34.6613 33.8854 34.4412 33.7024 34.3244 33.4065C34.2076 33.1107 34.3707 32.536 34.4586 32.4961C34.5589 32.4506 35.0615 32.7238 35.1783 33.0196C35.2951 33.3155 35.2645 33.6121 34.9629 33.7488Z" fill="#FCCD00"/>
</g>
<path d="M25.247 26.7484C25.076 29.7555 29.2235 30.4919 29.529 33.1701C29.7624 35.2162 28.0482 37.5423 25.2682 36.0636C21.8198 34.2293 19.4294 31.5045 19.4294 26.8705C19.4294 22.2365 22.1513 19.7907 24.3931 19.0529C26.1049 18.4896 28.3085 19.0443 28.3318 20.9375C28.3475 22.2195 25.4302 23.5272 25.247 26.7484Z" fill="#CF0002"/>
<g filter="url(#filter1_f_228_158)">
<path d="M23.8565 26.9011C23.7615 29.3649 27.6056 30.6888 27.7753 32.883C27.905 34.5594 27.3961 35.5582 25.8515 34.3466C23.9357 32.8438 22.0836 30.741 22.0836 26.9443C22.0836 23.1476 24.1199 21.0142 25.3654 20.4098C26.3164 19.9482 27.2553 20.3476 26.6904 21.7758C26.2145 22.9788 23.9583 24.262 23.8565 26.9011V26.9011Z" fill="#FF1702"/>
</g>
<g opacity="0.843">
<path d="M21.9428 27.3995C21.9735 27.806 22.286 27.9521 22.6559 27.9239C23.0257 27.8957 23.5232 27.4094 23.5143 27.2908C23.5042 27.1556 22.939 26.7447 22.5691 26.7729C22.1992 26.8011 21.9121 26.9929 21.9428 27.3995V27.3995Z" fill="#FB9704"/>
<path d="M22.135 27.3928C22.162 27.7749 22.4378 27.9122 22.7641 27.8857C23.0904 27.8592 23.5293 27.4021 23.5214 27.2906C23.5124 27.1635 23.0138 26.7774 22.6875 26.8039C22.3612 26.8303 22.108 27.0107 22.135 27.3928Z" fill="#FCCD00"/>
<path d="M22.2132 25.2684C22.0638 25.6437 22.2769 25.9288 22.6165 26.088C22.9561 26.2472 23.6077 26.0641 23.6513 25.9546C23.7011 25.8298 23.3793 25.1845 23.0397 25.0253C22.7001 24.8661 22.3627 24.8931 22.2132 25.2684V25.2684Z" fill="#FB9704"/>
<path d="M22.3861 25.3582C22.2441 25.7101 22.4285 25.969 22.7288 26.108C23.0291 26.247 23.6161 26.0607 23.6575 25.9581C23.7048 25.841 23.4313 25.2507 23.131 25.1117C22.8307 24.9727 22.5282 25.0063 22.3861 25.3582Z" fill="#FCCD00"/>
<path d="M22.9996 23.5743C22.7858 23.9119 22.9439 24.2355 23.2487 24.4617C23.5535 24.6878 24.2257 24.6424 24.288 24.5439C24.3592 24.4317 24.159 23.7321 23.8542 23.5059C23.5494 23.2798 23.2134 23.2367 22.9996 23.5743V23.5743Z" fill="#FB9704"/>
<path d="M23.1535 23.6982C22.9512 24.0143 23.0858 24.3064 23.3556 24.5047C23.6254 24.7029 24.2348 24.641 24.2939 24.5488C24.3612 24.4437 24.1984 23.808 23.9286 23.6098C23.6587 23.4115 23.3559 23.3822 23.1535 23.6982Z" fill="#FCCD00"/>
<path d="M24.1765 21.989C23.9197 22.2672 24.016 22.6022 24.2665 22.8729C24.517 23.1435 25.1584 23.2272 25.2333 23.1461C25.3188 23.0536 25.2442 22.3561 24.9937 22.0854C24.7432 21.8147 24.4333 21.7109 24.1765 21.989V21.989Z" fill="#FB9704"/>
<path d="M24.3011 22.1347C24.0586 22.3947 24.1378 22.6956 24.3599 22.9333C24.582 23.1711 25.1669 23.2274 25.2376 23.1515C25.3183 23.0651 25.2686 22.4349 25.0465 22.1971C24.8244 21.9593 24.5436 21.8747 24.3011 22.1347Z" fill="#FCCD00"/>
<path d="M25.533 20.7469C25.2464 20.9309 25.2607 21.2514 25.4254 21.5525C25.5902 21.8536 26.1411 22.0843 26.2247 22.0306C26.3201 21.9695 26.4018 21.3329 26.2371 21.0318C26.0724 20.7306 25.8197 20.563 25.533 20.7469V20.7469Z" fill="#FB9704"/>
<path d="M25.6128 20.9067C25.3427 21.0781 25.3492 21.3641 25.4957 21.6291C25.6422 21.8941 26.1488 22.0867 26.2276 22.0367C26.3175 21.9798 26.407 21.4089 26.2605 21.1439C26.114 20.8789 25.8829 20.7353 25.6128 20.9067Z" fill="#FCCD00"/>
<path d="M22.6991 29.6533C22.9046 29.9969 23.2446 29.9685 23.5586 29.7575C23.8725 29.5464 24.098 28.8665 24.038 28.7663C23.9697 28.652 23.2905 28.5737 22.9766 28.7848C22.6626 28.9959 22.4935 29.3098 22.6991 29.6533V29.6533Z" fill="#FB9704"/>
<path d="M22.8656 29.5506C23.0573 29.8743 23.3609 29.8568 23.6372 29.6692C23.9134 29.4815 24.1 28.857 24.0441 28.7625C23.9804 28.6548 23.3708 28.5648 23.0946 28.7524C22.8183 28.9401 22.674 29.2268 22.8656 29.5506Z" fill="#FCCD00"/>
<path d="M23.8591 31.4125C24.1513 31.6739 24.4676 31.5375 24.7081 31.235C24.9485 30.9326 24.9734 30.2116 24.8881 30.1353C24.791 30.0482 24.1213 30.1922 23.8809 30.4947C23.6404 30.7971 23.567 31.151 23.8591 31.4125V31.4125Z" fill="#FB9704"/>
<path d="M23.9894 31.2609C24.2627 31.508 24.5474 31.3935 24.7585 31.1256C24.9695 30.8576 24.9728 30.2018 24.893 30.1297C24.8021 30.0475 24.1956 30.1579 23.9845 30.4259C23.7735 30.6938 23.716 31.0137 23.9894 31.2609Z" fill="#FCCD00"/>
<path d="M25.2488 32.844C25.5508 33.0306 25.8162 32.854 25.9888 32.5405C26.1613 32.227 26.0779 31.5722 25.9898 31.5178C25.8894 31.4557 25.3063 31.6988 25.1338 32.0123C24.9612 32.3258 24.9469 32.6575 25.2488 32.844V32.844Z" fill="#FB9704"/>
<path d="M25.344 32.6851C25.6269 32.8618 25.8669 32.7104 26.018 32.433C26.1691 32.1556 26.0758 31.5633 25.9933 31.5118C25.8992 31.453 25.3681 31.6551 25.217 31.9325C25.0659 32.21 25.0611 32.5083 25.344 32.6851Z" fill="#FCCD00"/>
<path d="M26.8517 33.919C27.1734 34.0627 27.4156 33.8512 27.5495 33.5167C27.6833 33.1821 27.5227 32.5441 27.4289 32.5022C27.3219 32.4544 26.7725 32.7753 26.6386 33.1099C26.5048 33.4444 26.53 33.7753 26.8517 33.919V33.919Z" fill="#FB9704"/>
<path d="M26.9273 33.7486C27.2289 33.8853 27.4489 33.7022 27.5657 33.4064C27.6825 33.1105 27.5195 32.5358 27.4315 32.496C27.3312 32.4505 26.8286 32.7236 26.7118 33.0195C26.595 33.3154 26.6257 33.612 26.9273 33.7486Z" fill="#FCCD00"/>
</g>
<path opacity="0.455" d="M34.9031 35.2569C37.6014 34.1469 38.1628 33.7309 39.9769 31.5311C38.8612 34.1256 37.5803 34.981 34.9031 35.2569Z" fill="url(#paint0_linear_228_158)"/>
<path opacity="0.455" d="M35.8086 19.4749C38.5069 20.5849 39.0683 21.0009 40.8824 23.2007C39.7667 20.6062 38.4858 19.7508 35.8086 19.4749Z" fill="url(#paint1_linear_228_158)"/>
<g filter="url(#filter2_f_228_158)">
<path d="M39.9474 27.3995C39.9167 27.806 39.6041 27.9521 39.2343 27.9239C38.8644 27.8957 38.3669 27.4094 38.3759 27.2908C38.386 27.1556 38.9512 26.7447 39.321 26.7729C39.6909 26.8011 39.978 26.9929 39.9474 27.3995V27.3995Z" fill="#FB9704"/>
<path d="M39.7551 27.3928C39.7281 27.7749 39.4524 27.9122 39.1261 27.8857C38.7998 27.8592 38.3609 27.4021 38.3688 27.2906C38.3777 27.1635 38.8763 26.7774 39.2026 26.8039C39.5289 26.8303 39.7822 27.0107 39.7551 27.3928Z" fill="#FCCD00"/>
<path d="M39.6769 25.2683C39.8264 25.6436 39.6132 25.9287 39.2736 26.0879C38.934 26.2471 38.2825 26.064 38.2388 25.9545C38.1891 25.8297 38.5108 25.1844 38.8505 25.0252C39.1901 24.866 39.5275 24.8929 39.6769 25.2683V25.2683Z" fill="#FB9704"/>
<path d="M39.5037 25.3582C39.6458 25.7101 39.4614 25.969 39.1611 26.108C38.8608 26.247 38.2738 26.0607 38.2324 25.9581C38.1851 25.841 38.4586 25.2507 38.7589 25.1117C39.0592 24.9727 39.3617 25.0063 39.5037 25.3582Z" fill="#FCCD00"/>
<path d="M38.8905 23.5745C39.1044 23.912 38.9462 24.2357 38.6414 24.4618C38.3366 24.688 37.6645 24.6426 37.6021 24.5441C37.5309 24.4319 37.7312 23.7323 38.036 23.5061C38.3408 23.2799 38.6767 23.2369 38.8905 23.5745V23.5745Z" fill="#FB9704"/>
<path d="M38.7369 23.6982C38.9392 24.0143 38.8046 24.3064 38.5348 24.5047C38.2649 24.7029 37.6556 24.641 37.5965 24.5488C37.5292 24.4437 37.692 23.808 37.9618 23.6098C38.2316 23.4115 38.5345 23.3822 38.7369 23.6982Z" fill="#FCCD00"/>
<path d="M37.7134 21.989C37.9702 22.2672 37.8739 22.6022 37.6234 22.8729C37.3729 23.1435 36.7315 23.2272 36.6566 23.1461C36.5711 23.0536 36.6457 22.3561 36.8962 22.0854C37.1467 21.8147 37.4566 21.7109 37.7134 21.989V21.989Z" fill="#FB9704"/>
<path d="M37.5888 22.1347C37.8313 22.3947 37.7521 22.6956 37.53 22.9333C37.3079 23.1711 36.723 23.2274 36.6522 23.1515C36.5716 23.0651 36.6212 22.4349 36.8434 22.1971C37.0655 21.9593 37.3463 21.8747 37.5888 22.1347Z" fill="#FCCD00"/>
<path d="M36.3569 20.747C36.6435 20.931 36.6292 21.2515 36.4645 21.5526C36.2997 21.8537 35.7488 22.0844 35.6652 22.0307C35.5698 21.9696 35.488 21.333 35.6528 21.0319C35.8175 20.7308 36.0702 20.5631 36.3569 20.747V20.747Z" fill="#FB9704"/>
<path d="M36.2773 20.9067C36.5475 21.0781 36.541 21.3641 36.3945 21.6291C36.248 21.8941 35.7413 22.0867 35.6625 22.0367C35.5726 21.9798 35.4831 21.4089 35.6296 21.1439C35.7761 20.8789 36.0072 20.7353 36.2773 20.9067Z" fill="#FCCD00"/>
<path d="M39.1911 29.6533C38.9855 29.9969 38.6455 29.9685 38.3316 29.7575C38.0176 29.5464 37.7922 28.8665 37.8521 28.7663C37.9205 28.652 38.5996 28.5737 38.9136 28.7848C39.2276 28.9959 39.3966 29.3098 39.1911 29.6533V29.6533Z" fill="#FB9704"/>
<path d="M39.0245 29.5506C38.8329 29.8743 38.5292 29.8568 38.253 29.6692C37.9767 29.4815 37.7902 28.857 37.8461 28.7625C37.9098 28.6548 38.5193 28.5648 38.7956 28.7524C39.0719 28.9401 39.2162 29.2268 39.0245 29.5506Z" fill="#FCCD00"/>
<path d="M38.0308 31.4125C37.7386 31.6739 37.4223 31.5375 37.1818 31.235C36.9414 30.9326 36.9165 30.2116 37.0017 30.1353C37.0989 30.0482 37.7686 30.1922 38.009 30.4947C38.2495 30.7971 38.3229 31.151 38.0308 31.4125V31.4125Z" fill="#FB9704"/>
<path d="M37.9008 31.2609C37.6274 31.508 37.3427 31.3935 37.1317 31.1256C36.9206 30.8576 36.9174 30.2018 36.9971 30.1297C37.088 30.0475 37.6946 30.1579 37.9056 30.4259C38.1167 30.6938 38.1741 31.0137 37.9008 31.2609Z" fill="#FCCD00"/>
<path d="M36.6411 32.8444C36.3391 33.0309 36.0737 32.8544 35.9011 32.5408C35.7286 32.2273 35.812 31.5725 35.9001 31.5181C36.0005 31.456 36.5836 31.6991 36.7561 32.0127C36.9287 32.3262 36.943 32.6579 36.6411 32.8444V32.8444Z" fill="#FB9704"/>
<path d="M36.5459 32.6852C36.263 32.8619 36.023 32.7105 35.8719 32.4331C35.7208 32.1556 35.8141 31.5634 35.8966 31.5118C35.9907 31.453 36.5218 31.6552 36.6729 31.9326C36.824 32.21 36.8288 32.5084 36.5459 32.6852Z" fill="#FCCD00"/>
<path d="M35.0384 33.919C34.7167 34.0627 34.4745 33.8512 34.3407 33.5167C34.2068 33.1821 34.3674 32.5441 34.4613 32.5022C34.5682 32.4544 35.1176 32.7753 35.2515 33.1099C35.3853 33.4444 35.3601 33.7753 35.0384 33.919V33.919Z" fill="#FB9704"/>
<path d="M34.9629 33.7488C34.6613 33.8854 34.4412 33.7024 34.3244 33.4065C34.2076 33.1107 34.3707 32.536 34.4586 32.4961C34.5589 32.4506 35.0615 32.7238 35.1783 33.0196C35.2951 33.3155 35.2645 33.6121 34.9629 33.7488Z" fill="#FCCD00"/>
</g>
<g opacity="0.643" filter="url(#filter3_f_228_158)">
<path d="M29.3434 21.1475C29.3434 21.1475 29.4063 22.7021 28.8124 23.9764C28.2185 25.2507 27.2103 28.163 28.5169 29.6589C29.8236 31.1548 33.673 31.1063 34.3264 28.7794C34.9797 26.4525 34.2361 24.6161 32.9888 22.5108C31.7416 20.4054 33.4447 18.9448 33.4447 18.9448C33.4447 18.9448 30.5036 20.4903 28.4675 19.0502L29.3434 21.1475Z" fill="url(#paint2_radial_228_158)"/>
</g>
<g filter="url(#filter4_f_228_158)">
<path d="M21.9428 27.3995C21.9735 27.806 22.286 27.9521 22.6559 27.9239C23.0257 27.8957 23.5232 27.4094 23.5143 27.2908C23.5042 27.1556 22.939 26.7447 22.5691 26.7729C22.1992 26.8011 21.9121 26.9929 21.9428 27.3995V27.3995Z" fill="#FB9704"/>
<path d="M22.135 27.3928C22.162 27.7749 22.4378 27.9122 22.7641 27.8857C23.0904 27.8592 23.5293 27.4021 23.5214 27.2906C23.5124 27.1635 23.0138 26.7774 22.6875 26.8039C22.3612 26.8303 22.108 27.0107 22.135 27.3928Z" fill="#FCCD00"/>
<path d="M22.2132 25.2684C22.0638 25.6437 22.2769 25.9288 22.6165 26.088C22.9561 26.2472 23.6077 26.0641 23.6513 25.9546C23.7011 25.8298 23.3793 25.1845 23.0397 25.0253C22.7001 24.8661 22.3627 24.8931 22.2132 25.2684V25.2684Z" fill="#FB9704"/>
<path d="M22.3861 25.3582C22.2441 25.7101 22.4285 25.969 22.7288 26.108C23.0291 26.247 23.6161 26.0607 23.6575 25.9581C23.7048 25.841 23.4313 25.2507 23.131 25.1117C22.8307 24.9727 22.5282 25.0063 22.3861 25.3582Z" fill="#FCCD00"/>
<path d="M22.9996 23.5743C22.7858 23.9119 22.9439 24.2355 23.2487 24.4617C23.5535 24.6878 24.2257 24.6424 24.288 24.5439C24.3592 24.4317 24.159 23.7321 23.8542 23.5059C23.5494 23.2798 23.2134 23.2367 22.9996 23.5743V23.5743Z" fill="#FB9704"/>
<path d="M23.1535 23.6982C22.9512 24.0143 23.0858 24.3064 23.3556 24.5047C23.6254 24.7029 24.2348 24.641 24.2939 24.5488C24.3612 24.4437 24.1984 23.808 23.9286 23.6098C23.6587 23.4115 23.3559 23.3822 23.1535 23.6982Z" fill="#FCCD00"/>
<path d="M24.1765 21.989C23.9197 22.2672 24.016 22.6022 24.2665 22.8729C24.517 23.1435 25.1584 23.2272 25.2333 23.1461C25.3188 23.0536 25.2442 22.3561 24.9937 22.0854C24.7432 21.8147 24.4333 21.7109 24.1765 21.989V21.989Z" fill="#FB9704"/>
<path d="M24.3011 22.1347C24.0586 22.3947 24.1378 22.6956 24.3599 22.9333C24.582 23.1711 25.1669 23.2274 25.2376 23.1515C25.3183 23.0651 25.2686 22.4349 25.0465 22.1971C24.8244 21.9593 24.5436 21.8747 24.3011 22.1347Z" fill="#FCCD00"/>
<path d="M25.533 20.7469C25.2464 20.9309 25.2607 21.2514 25.4254 21.5525C25.5902 21.8536 26.1411 22.0843 26.2247 22.0306C26.3201 21.9695 26.4018 21.3329 26.2371 21.0318C26.0724 20.7306 25.8197 20.563 25.533 20.7469V20.7469Z" fill="#FB9704"/>
<path d="M25.6128 20.9067C25.3427 21.0781 25.3492 21.3641 25.4957 21.6291C25.6422 21.8941 26.1488 22.0867 26.2276 22.0367C26.3175 21.9798 26.407 21.4089 26.2605 21.1439C26.114 20.8789 25.8829 20.7353 25.6128 20.9067Z" fill="#FCCD00"/>
<path d="M22.6991 29.6533C22.9046 29.9969 23.2446 29.9685 23.5586 29.7575C23.8725 29.5464 24.098 28.8665 24.038 28.7663C23.9697 28.652 23.2905 28.5737 22.9766 28.7848C22.6626 28.9959 22.4935 29.3098 22.6991 29.6533V29.6533Z" fill="#FB9704"/>
<path d="M22.8656 29.5506C23.0573 29.8743 23.3609 29.8568 23.6372 29.6692C23.9134 29.4815 24.1 28.857 24.0441 28.7625C23.9804 28.6548 23.3708 28.5648 23.0946 28.7524C22.8183 28.9401 22.674 29.2268 22.8656 29.5506Z" fill="#FCCD00"/>
<path d="M23.8591 31.4125C24.1513 31.6739 24.4676 31.5375 24.7081 31.235C24.9485 30.9326 24.9734 30.2116 24.8881 30.1353C24.791 30.0482 24.1213 30.1922 23.8809 30.4947C23.6404 30.7971 23.567 31.151 23.8591 31.4125V31.4125Z" fill="#FB9704"/>
<path d="M23.9894 31.2609C24.2627 31.508 24.5474 31.3935 24.7585 31.1256C24.9695 30.8576 24.9728 30.2018 24.893 30.1297C24.8021 30.0475 24.1956 30.1579 23.9845 30.4259C23.7735 30.6938 23.716 31.0137 23.9894 31.2609Z" fill="#FCCD00"/>
<path d="M25.2488 32.844C25.5508 33.0306 25.8162 32.854 25.9888 32.5405C26.1613 32.227 26.0779 31.5722 25.9898 31.5178C25.8894 31.4557 25.3063 31.6988 25.1338 32.0123C24.9612 32.3258 24.9469 32.6575 25.2488 32.844V32.844Z" fill="#FB9704"/>
<path d="M25.344 32.6851C25.6269 32.8618 25.8669 32.7104 26.018 32.433C26.1691 32.1556 26.0758 31.5633 25.9933 31.5118C25.8992 31.453 25.3681 31.6551 25.217 31.9325C25.0659 32.21 25.0611 32.5083 25.344 32.6851Z" fill="#FCCD00"/>
<path d="M26.8517 33.919C27.1734 34.0627 27.4156 33.8512 27.5495 33.5167C27.6833 33.1821 27.5227 32.5441 27.4289 32.5022C27.3219 32.4544 26.7725 32.7753 26.6386 33.1099C26.5048 33.4444 26.53 33.7753 26.8517 33.919V33.919Z" fill="#FB9704"/>
<path d="M26.9273 33.7486C27.2289 33.8853 27.4489 33.7022 27.5657 33.4064C27.6825 33.1105 27.5195 32.5358 27.4315 32.496C27.3312 32.4505 26.8286 32.7236 26.7118 33.0195C26.595 33.3154 26.6257 33.612 26.9273 33.7486Z" fill="#FCCD00"/>
</g>
<defs>
<filter id="filter0_f_228_158" x="20.7538" y="6.88562" width="32.3945" height="41.3379" filterUnits="userSpaceOnUse" color-interpolation-filters="sRGB">
<feFlood flood-opacity="0" result="BackgroundImageFix"/>
<feBlend mode="normal" in="SourceGraphic" in2="BackgroundImageFix" result="shape"/>
<feGaussianBlur stdDeviation="6.67084" result="effect1_foregroundBlur_228_158"/>
</filter>
<filter id="filter1_f_228_158" x="8.74182" y="6.88562" width="32.3945" height="41.3379" filterUnits="userSpaceOnUse" color-interpolation-filters="sRGB">
<feFlood flood-opacity="0" result="BackgroundImageFix"/>
<feBlend mode="normal" in="SourceGraphic" in2="BackgroundImageFix" result="shape"/>
<feGaussianBlur stdDeviation="6.67084" result="effect1_foregroundBlur_228_158"/>
</filter>
<filter id="filter2_f_228_158" x="27.7627" y="14.1494" width="18.708" height="26.3363" filterUnits="userSpaceOnUse" color-interpolation-filters="sRGB">
<feFlood flood-opacity="0" result="BackgroundImageFix"/>
<feBlend mode="normal" in="SourceGraphic" in2="BackgroundImageFix" result="shape"/>
<feGaussianBlur stdDeviation="3.26049" result="effect1_foregroundBlur_228_158"/>
</filter>
<filter id="filter3_f_228_158" x="10.0829" y="1.14927" width="42.2809" height="47.3202" filterUnits="userSpaceOnUse" color-interpolation-filters="sRGB">
<feFlood flood-opacity="0" result="BackgroundImageFix"/>
<feBlend mode="normal" in="SourceGraphic" in2="BackgroundImageFix" result="shape"/>
<feGaussianBlur stdDeviation="8.89775" result="effect1_foregroundBlur_228_158"/>
</filter>
<filter id="filter4_f_228_158" x="15.4194" y="14.1493" width="18.708" height="26.3365" filterUnits="userSpaceOnUse" color-interpolation-filters="sRGB">
<feFlood flood-opacity="0" result="BackgroundImageFix"/>
<feBlend mode="normal" in="SourceGraphic" in2="BackgroundImageFix" result="shape"/>
<feGaussianBlur stdDeviation="3.26049" result="effect1_foregroundBlur_228_158"/>
</filter>
<linearGradient id="paint0_linear_228_158" x1="34.9031" y1="33.394" x2="39.9769" y2="33.394" gradientUnits="userSpaceOnUse">
<stop stop-color="white"/>
<stop offset="1" stop-color="white" stop-opacity="0"/>
</linearGradient>
<linearGradient id="paint1_linear_228_158" x1="35.8086" y1="21.3378" x2="40.8824" y2="21.3378" gradientUnits="userSpaceOnUse">
<stop stop-color="white"/>
<stop offset="1" stop-color="white" stop-opacity="0"/>
</linearGradient>
<radialGradient id="paint2_radial_228_158" cx="0" cy="0" r="1" gradientUnits="userSpaceOnUse" gradientTransform="translate(30.9213 24.0554) rotate(0.346498) scale(5.45452 8.66152)">
<stop stop-color="white"/>
<stop offset="1" stop-color="#FF4335"/>
</radialGradient>
</defs>
</svg>
