<svg xmlns="http://www.w3.org/2000/svg" width="56.477" height="44.784" viewBox="0 0 56.477 44.784">
  <path id="edit" d="M27.614,32.838l3.607-3.607L26.495,24.5l-3.607,3.607v1.741h2.985v2.985ZM41.3,10.449a.642.642,0,0,0-1.026.031L29.387,21.364a.7.7,0,1,0,1,1L41.266,11.475A.642.642,0,0,0,41.3,10.449ZM43.784,28.92v5.908a8.972,8.972,0,0,1-8.956,8.956H8.956a8.626,8.626,0,0,1-6.328-2.628A8.626,8.626,0,0,1,0,34.828V8.956A8.626,8.626,0,0,1,2.628,2.628,8.626,8.626,0,0,1,8.956,0H34.828a8.554,8.554,0,0,1,3.638.777.943.943,0,0,1,.56.715.968.968,0,0,1-.28.9L37.223,3.918a.909.909,0,0,1-1,.249,5.531,5.531,0,0,0-1.4-.187H8.956A4.791,4.791,0,0,0,5.442,5.442,4.791,4.791,0,0,0,3.98,8.956V34.828a4.791,4.791,0,0,0,1.462,3.514A4.791,4.791,0,0,0,8.956,39.8H34.828A4.99,4.99,0,0,0,39.8,34.828V30.91a.931.931,0,0,1,.28-.684l1.99-1.99a.933.933,0,0,1,1.088-.218A.9.9,0,0,1,43.784,28.92ZM40.8,5.971l8.956,8.956-20.9,20.9H19.9V26.868Zm13.807,4.1-2.861,2.861L42.789,3.98,45.65,1.119a3,3,0,0,1,4.229,0l4.727,4.727a2.879,2.879,0,0,1,.871,2.115A2.879,2.879,0,0,1,54.606,10.075Z" transform="translate(0.5 0.5)" fill="#6fa3e6" stroke="#000" stroke-width="1"/>
</svg>
