<svg xmlns="http://www.w3.org/2000/svg" width="38.188" height="47" viewBox="0 0 38.188 47">
  <path id="bin" d="M3.938,14.688V44.063A2.946,2.946,0,0,0,6.875,47H33.313a2.946,2.946,0,0,0,2.938-2.937V14.688ZM12.75,41.125H9.813V20.563H12.75Zm5.875,0H15.687V20.563h2.938Zm5.875,0H21.563V20.563H24.5Zm5.875,0H27.438V20.563h2.938Zm6.609-35.25H27.438V2.2a2.212,2.212,0,0,0-2.2-2.2H14.953a2.212,2.212,0,0,0-2.2,2.2V5.875H3.2A2.209,2.209,0,0,0,1,8.078V11.75H39.188V8.078a2.209,2.209,0,0,0-2.2-2.2Zm-12.484,0H15.687v-2.9H24.5Z" transform="translate(-1)" fill="#dc2c2c"/>
</svg>
